<?xml version="1.0" encoding="utf-8"?>
<!-- Generator: Adobe Illustrator 21.0.0, SVG Export Plug-In . SVG Version: 6.00 Build 0)  -->
<svg version="1.1" id="Layer_1" xmlns="http://www.w3.org/2000/svg" xmlns:xlink="http://www.w3.org/1999/xlink" x="0px" y="0px"
	 viewBox="0 0 1280 367" style="enable-background:new 0 0 1280 367;" xml:space="preserve">
<style type="text/css">
	.st0{fill:#C1C1C1;}
</style>
<g>
	<path class="st0" d="M851.8,31c108,0,215.6,0,323.4,0c0,101.6,0,203.1,0,304.9c-107.7,0-215.5,0-323.4,0
		C851.8,234.3,851.8,132.8,851.8,31z M1109.3,128.6c0-11.8,0.1-24.3-0.1-36.7c0-1.2-1.5-2.9-2.7-3.3c-9.4-3.5-18.8-7.1-28.5-9.9
		c-36.2-10.7-72.2-11-107.6,3.4c-54.8,22.2-76.1,76.5-68.5,118.2c7.1,39.4,28.3,68.7,65.1,84c47.5,19.8,94.8,15.2,140.9-6.5
		c2.7-1.3,3.5-3,3.5-5.8c-0.1-11,0-22.1-0.1-33.2c0-1.3-0.2-2.6-0.3-4.6c-3,1.7-5.3,3.2-7.7,4.5c-31.2,17.6-63.6,27.4-100,19.7
		c-56.8-12-76.2-69.2-52.3-113.1c12.3-22.6,33.1-33.2,57.4-38.1c20-4,39.7-1.2,58.7,5C1081.4,116.9,1095.1,123,1109.3,128.6z"/>
	<path class="st0" d="M428.1,336c-107.7,0-215.4,0-323.3,0c0-101.6,0-203.1,0-304.9c107.7,0,215.3,0,323.3,0
		C428.1,132.6,428.1,234.2,428.1,336z M190,293.1c1.4,0.1,2.4,0.2,3.5,0.2c27.8,0,55.7,0.1,83.5,0c12.1-0.1,23.9-2.4,35.2-6.7
		c25.6-9.7,38.9-28.4,39.2-55.1c0.2-22.5-14.2-42.4-37.5-51.6c-3.1-1.2-6.2-2.2-9.6-3.4c0.7-0.5,1.1-0.9,1.5-1.1
		c36.2-19.9,31.7-68.2,3.1-87.6c-13.7-9.3-29.2-13.5-45.5-13.8c-23.1-0.5-46.1-0.1-69.2-0.1c-1.4,0-2.7,0-4.4,0
		C190,147.1,190,220,190,293.1z"/>
	<path class="st0" d="M801.6,336c-107.7,0-215.4,0-323.3,0c0-101.6,0-203.1,0-304.9c107.7,0,215.3,0,323.3,0
		C801.6,132.6,801.6,234.2,801.6,336z M563.5,73.8c0,73.3,0,146.2,0,219.3c1,0.1,1.8,0.2,2.6,0.2c28.4,0,56.8,0.2,85.2-0.1
		c14.8-0.2,29.1-3.4,42.4-10.2c21-10.8,31.7-28.3,31.2-51.9c-0.5-22.3-11.6-38.3-31.2-48.5c-4.9-2.5-10.3-4.2-14.2-5.8
		c5.6-5.5,12.6-10.7,17.4-17.4c16.5-23.1,8.4-57.3-16.8-73.3c-13.1-8.3-27.7-12-43-12.3c-23.1-0.4-46.2-0.1-69.2-0.1
		C566.5,73.8,565.1,73.8,563.5,73.8z"/>
	<path class="st0" d="M228.9,258.8c0-19.7,0-39.3,0-59.1c1.1-0.1,2-0.2,2.9-0.2c16.8,0.3,33.5,0.2,50.3,1c5.2,0.3,10.7,2.4,15.3,5.1
		c18.5,10.5,18.7,36.7,0.1,47.2c-5.3,3-11.7,5.5-17.7,5.7C263,259.3,246.1,258.8,228.9,258.8z"/>
	<path class="st0" d="M229.1,107.3c14,0.8,27.9,0.6,41.4,2.6c12.2,1.8,19.6,10.7,21,21.5c1.4,11.4-3.9,22.4-14.9,27.6
		c-5.9,2.8-12.7,3.8-19.2,5.5c-1.5,0.4-3.1,0.3-4.6,0.3c-7.8,0-15.6,0-23.8,0C229.1,145.9,229.1,127.3,229.1,107.3z"/>
	<path class="st0" d="M602.5,200.3c18.1,0,35.7-0.8,53.2,0.3c12.8,0.8,23.3,7,27.8,20.2c4.1,12.2-0.9,26.1-12.5,32
		c-6.2,3.2-13.4,5.6-20.2,6c-15.6,0.9-31.3,0.4-47,0.4c-0.4,0-0.8-0.2-1.3-0.4C602.5,239.2,602.5,219.6,602.5,200.3z"/>
	<path class="st0" d="M602.4,164.2c0-18.4,0-37,0-55.5c0.3-0.2,0.5-0.5,0.7-0.5c12.6,0.2,25.2-0.3,37.7,0.9
		c12.9,1.2,21.4,9.3,23.8,20.3c2.3,10.5-1.8,22-11,27.5c-5.6,3.4-12.2,6.3-18.5,7C624.5,165,613.6,164.2,602.4,164.2z"/>
</g>
</svg>
