<?xml version="1.0" encoding="utf-8"?>
<!-- Generator: Adobe Illustrator 21.0.0, SVG Export Plug-In . SVG Version: 6.00 Build 0)  -->
<svg version="1.1"
	 id="svg2" inkscape:export-filename="C:\Users\Daijin\Desktop\Deloitte.png" inkscape:export-xdpi="90" inkscape:export-ydpi="90" inkscape:version="0.91 r13725" sodipodi:docname="Deloitte_logo_2016.svg" xmlns:cc="http://creativecommons.org/ns#" xmlns:dc="http://purl.org/dc/elements/1.1/" xmlns:inkscape="http://www.inkscape.org/namespaces/inkscape" xmlns:rdf="http://www.w3.org/1999/02/22-rdf-syntax-ns#" xmlns:sodipodi="http://sodipodi.sourceforge.net/DTD/sodipodi-0.dtd" xmlns:svg="http://www.w3.org/2000/svg"
	 xmlns="http://www.w3.org/2000/svg" xmlns:xlink="http://www.w3.org/1999/xlink" x="0px" y="0px" viewBox="0 0 1280 367"
	 style="enable-background:new 0 0 1280 367;" xml:space="preserve">
<style type="text/css">
	.st0{fill:#C1C1C1;}
</style>
<sodipodi:namedview  bordercolor="#666666" borderopacity="1.0" fit-margin-bottom="10" fit-margin-left="10" fit-margin-right="10" fit-margin-top="10" id="base" inkscape:current-layer="g3359" inkscape:cx="300.28476" inkscape:cy="100" inkscape:document-units="px" inkscape:pageopacity="0" inkscape:pageshadow="2" inkscape:window-height="1017" inkscape:window-maximized="1" inkscape:window-width="1920" inkscape:window-x="-8" inkscape:window-y="-8" inkscape:zoom="0.6636812" pagecolor="#ffffff" showgrid="false" units="px">
	</sodipodi:namedview>
<g id="layer1_1_" transform="translate(-2521.9698,-654.34261)" inkscape:groupmode="layer" inkscape:label="Layer 1">
	<g id="g3359_1_" transform="matrix(3.0676446,0,0,3.0676446,-6165.655,-2195.369)">
		<g id="g3371_1_" transform="matrix(1.7716542,0,0,1.7716542,-2301.0501,-745.37663)">
			<path id="path3356_1_" inkscape:connector-curvature="0" class="st0" d="M3120,994.5c0-3.4,2.8-6.2,6.2-6.2
				c3.4,0,6.2,2.8,6.2,6.2s-2.8,6.2-6.2,6.2C3122.8,1000.8,3120,998,3120,994.5"/>
			<path id="path3360_1_" inkscape:connector-curvature="0" class="st0" d="M2921.6,978.1c0-3.9-0.8-6.9-2.3-8.8
				c-1.5-1.9-3.8-2.9-6.9-2.9h-3.3v24.1h2.5c3.4,0,6-1,7.6-3.1C2920.8,985.4,2921.6,982.3,2921.6,978.1 M2933.4,977.7
				c0,7.2-1.9,12.7-5.8,16.6c-3.9,3.9-9.3,5.8-16.3,5.8h-13.6v-43h14.5c6.7,0,11.9,1.8,15.6,5.3
				C2931.6,965.9,2933.4,971,2933.4,977.7"/>
			<path id="path3362_1_" inkscape:connector-curvature="0" class="st0" d="M2971,1000.1h10.8v-43.2H2971V1000.1z"/>
			<path id="path3366_1_" inkscape:connector-curvature="0" class="st0" d="M2997,984c0,2.8,0.4,4.9,1.1,6.3
				c0.7,1.4,1.9,2.2,3.6,2.2c1.7,0,2.9-0.7,3.6-2.2c0.7-1.4,1-3.5,1-6.3c0-2.7-0.3-4.8-1-6.2c-0.7-1.4-1.9-2.1-3.6-2.1
				c-1.7,0-2.8,0.7-3.6,2.1C2997.4,979.1,2997,981.2,2997,984 M3017.3,984c0,5.2-1.4,9.3-4.1,12.3c-2.8,2.9-6.6,4.4-11.6,4.4
				c-4.8,0-8.5-1.5-11.3-4.5c-2.8-3-4.2-7.1-4.2-12.2c0-5.2,1.4-9.3,4.1-12.2c2.8-2.9,6.6-4.3,11.6-4.3c3.1,0,5.8,0.7,8.2,2
				c2.4,1.3,4.2,3.3,5.5,5.8C3016.7,977.7,3017.3,980.6,3017.3,984"/>
			<path id="path3370_1_" inkscape:connector-curvature="0" class="st0" d="M3021.6,1000.1h10.8v-16.5V968h-10.8V1000.1z"/>
			<path id="path3372_1_" inkscape:connector-curvature="0" class="st0" d="M3021.6,964.1h10.8v-7.2h-10.8V964.1z"/>
			<path id="path3376_1_" inkscape:connector-curvature="0" class="st0" d="M3054.3,991.9c1.5,0,3.2-0.4,5.2-1.1v8.1
				c-1.5,0.6-2.8,1.1-4.2,1.4c-1.3,0.3-2.9,0.4-4.6,0.4c-3.6,0-6.2-0.9-7.9-2.7c-1.6-1.8-2.4-4.6-2.4-8.4v-13.2h-3.8V968h3.8v-8.2
				l10.9-1.9V968h6.9v8.3h-6.9v12.5C3051.4,990.9,3052.4,991.9,3054.3,991.9"/>
			<path id="path3380_1_" inkscape:connector-curvature="0" class="st0" d="M3079.3,991.9c1.5,0,3.2-0.4,5.2-1.1v8.1
				c-1.5,0.6-2.8,1.1-4.2,1.4c-1.3,0.3-2.9,0.4-4.6,0.4c-3.6,0-6.2-0.9-7.8-2.7c-1.6-1.8-2.4-4.6-2.4-8.4v-13.2h-3.8V968h3.8v-8.3
				l10.9-1.8V968h6.9v8.3h-6.9v12.5C3076.4,990.9,3077.4,991.9,3079.3,991.9"/>
			<path id="path3384_1_" inkscape:connector-curvature="0" class="st0" d="M3098.2,980.1c0.1-1.8,0.6-3,1.5-3.9
				c0.9-0.8,1.9-1.2,3.2-1.2c1.4,0,2.5,0.5,3.3,1.4c0.8,0.9,1.3,2.2,1.3,3.7L3098.2,980.1L3098.2,980.1z M3113.5,971.2
				c-2.6-2.5-6.2-3.8-10.9-3.8c-5,0-8.8,1.4-11.4,4.3c-2.7,2.9-4,7.1-4,12.5c0,5.2,1.4,9.3,4.3,12.1c2.9,2.8,6.9,4.3,12.2,4.3
				c2.5,0,4.7-0.2,6.5-0.5c1.8-0.3,3.5-0.9,5.2-1.8l-1.7-7.2c-1.2,0.5-2.4,0.9-3.5,1.1c-1.6,0.4-3.3,0.6-5.2,0.6
				c-2.1,0-3.7-0.5-4.9-1.5c-1.2-1-1.8-2.4-1.9-4.2h19.3v-4.9C3117.3,977.4,3116,973.7,3113.5,971.2"/>
			<path id="path3388_1_" inkscape:connector-curvature="0" class="st0" d="M2947.8,980.1c0.1-1.8,0.6-3,1.5-3.9
				c0.9-0.8,1.9-1.2,3.2-1.2c1.4,0,2.5,0.5,3.3,1.4c0.8,0.9,1.2,2.2,1.3,3.7L2947.8,980.1L2947.8,980.1z M2963,971.2
				c-2.6-2.5-6.2-3.8-10.9-3.8c-5,0-8.8,1.4-11.4,4.3s-4,7.1-4,12.5c0,5.2,1.4,9.3,4.3,12.1c2.9,2.8,6.9,4.3,12.1,4.3
				c2.5,0,4.7-0.2,6.5-0.5c1.8-0.3,3.5-0.9,5.2-1.8l-1.7-7.2c-1.2,0.5-2.4,0.9-3.5,1.1c-1.6,0.4-3.3,0.6-5.2,0.6
				c-2.1,0-3.7-0.5-4.9-1.5c-1.2-1-1.8-2.4-1.9-4.2h19.3v-4.9C2966.9,977.4,2965.6,973.7,2963,971.2"/>
		</g>
	</g>
</g>
</svg>
