<?xml version="1.0" encoding="utf-8"?>
<!-- Generator: Adobe Illustrator 21.0.0, SVG Export Plug-In . SVG Version: 6.00 Build 0)  -->
<svg version="1.1" id="Layer_1" xmlns="http://www.w3.org/2000/svg" xmlns:xlink="http://www.w3.org/1999/xlink" x="0px" y="0px"
	 viewBox="0 0 1280 367" style="enable-background:new 0 0 1280 367;" xml:space="preserve">
<style type="text/css">
	.st0{fill:#C1C1C1;}
</style>
<g>
	<path class="st0" d="M1278.8,170.5V148h-27.9v-34.9l-0.9,0.3l-26.2,8l-0.5,0.2V148h-41.4v-14.7c0-6.9,1.5-12.1,4.6-15.6
		c3-3.5,7.3-5.2,12.8-5.2c3.9,0,8,0.9,12.1,2.8l1,0.5V92l-0.5-0.2c-3.8-1.4-9-2.1-15.5-2.1c-8.1,0-15.5,1.8-22,5.3
		c-6.5,3.5-11.5,8.5-15.1,14.9c-3.5,6.4-5.3,13.7-5.3,21.9V148h-19.4v22.5h19.4v94.7h27.9v-94.7h41.4v60.2
		c0,24.8,11.7,37.3,34.7,37.3c3.8,0,7.8-0.4,11.8-1.3c4.1-0.9,7-1.8,8.6-2.7l0.4-0.2V241l-1.1,0.8c-1.5,1-3.4,1.8-5.6,2.4
		c-2.2,0.6-4.1,0.9-5.5,0.9c-5.4,0-9.4-1.5-11.9-4.3c-2.5-2.9-3.8-8-3.8-15v-55.3L1278.8,170.5L1278.8,170.5L1278.8,170.5z
		 M1072.3,245.2c-10.1,0-18.1-3.4-23.7-10c-5.7-6.6-8.5-16.1-8.5-28.2c0-12.4,2.9-22.1,8.5-28.9c5.6-6.7,13.5-10.1,23.5-10.1
		c9.7,0,17.4,3.3,22.9,9.7c5.5,6.5,8.4,16.1,8.4,28.7c0,12.7-2.6,22.5-7.9,29C1090.2,241.9,1082.4,245.2,1072.3,245.2 M1073.5,145.2
		c-19.3,0-34.7,5.7-45.6,16.8c-10.9,11.2-16.5,26.6-16.5,45.9c0,18.3,5.4,33.1,16.1,43.8c10.7,10.8,25.2,16.2,43.2,16.2
		c18.7,0,33.8-5.7,44.7-17.1c10.9-11.3,16.5-26.6,16.5-45.5c0-18.6-5.2-33.5-15.5-44.2C1106.1,150.6,1091.7,145.2,1073.5,145.2
		 M966.5,145.2c-13.1,0-24,3.4-32.3,10c-8.4,6.7-12.6,15.4-12.6,26c0,5.5,0.9,10.4,2.7,14.5c1.8,4.2,4.6,7.8,8.3,10.9
		c3.7,3,9.4,6.2,17,9.5c6.4,2.6,11.1,4.8,14.1,6.6c2.9,1.7,5,3.4,6.2,5.1c1.1,1.6,1.7,3.9,1.7,6.6c0,7.9-5.9,11.7-18,11.7
		c-4.5,0-9.6-0.9-15.2-2.8c-5.6-1.8-10.8-4.5-15.6-7.9l-1.2-0.8v26.9l0.4,0.2c3.9,1.8,8.9,3.4,14.8,4.6c5.9,1.2,11.2,1.8,15.8,1.8
		c14.3,0,25.7-3.4,34.1-10c8.4-6.7,12.7-15.7,12.7-26.6c0-7.9-2.3-14.7-6.8-20.1c-4.5-5.4-12.3-10.4-23.2-14.8
		c-8.7-3.5-14.2-6.4-16.5-8.6c-2.2-2.1-3.3-5.2-3.3-9c0-3.4,1.4-6.1,4.2-8.3c2.9-2.2,6.9-3.4,11.9-3.4c4.6,0,9.4,0.7,14.1,2.2
		c4.7,1.4,8.9,3.4,12.3,5.7l1.1,0.8v-25.5l-0.4-0.2c-3.2-1.4-7.4-2.5-12.5-3.5C975.1,145.7,970.5,145.2,966.5,145.2 M848.9,245.2
		c-10.1,0-18.1-3.4-23.7-10c-5.7-6.6-8.5-16.1-8.5-28.2c0-12.4,2.9-22.1,8.5-28.9c5.6-6.7,13.5-10.1,23.5-10.1
		c9.7,0,17.4,3.3,22.9,9.7c5.5,6.5,8.4,16.1,8.4,28.7c0,12.7-2.6,22.5-7.9,29C866.8,241.9,859.1,245.2,848.9,245.2 M850.1,145.2
		c-19.3,0-34.7,5.7-45.6,16.8C793.6,173.2,788,188.7,788,208c0,18.3,5.4,33.1,16.1,43.8c10.7,10.8,25.2,16.2,43.2,16.2
		c18.7,0,33.8-5.7,44.7-17.1c10.9-11.3,16.5-26.6,16.5-45.5c0-18.6-5.2-33.5-15.5-44.2C882.7,150.6,868.3,145.2,850.1,145.2
		 M745.7,168.3V148h-27.5v117.1h27.5v-59.9c0-10.2,2.3-18.6,6.9-24.9c4.5-6.2,10.5-9.4,17.8-9.4c2.5,0,5.3,0.4,8.3,1.2
		c3,0.8,5.1,1.7,6.4,2.6l1.2,0.8v-27.8l-0.4-0.2c-2.6-1.1-6.2-1.6-10.8-1.6c-6.9,0-13.1,2.2-18.4,6.6c-4.7,3.9-8,9.1-10.6,15.7
		L745.7,168.3L745.7,168.3z M668.8,145.2c-12.6,0-23.9,2.7-33.5,8.1c-9.6,5.4-17,13-22.1,22.7c-5,9.7-7.6,21-7.6,33.7
		c0,11.1,2.5,21.2,7.4,30.2c4.9,9,11.8,16,20.6,20.8c8.8,4.9,18.9,7.3,30.1,7.3c13.1,0,24.3-2.6,33.2-7.8l0.4-0.2v-25.2l-1.2,0.8
		c-4.1,3-8.6,5.3-13.5,7c-4.9,1.7-9.3,2.6-13.2,2.6c-10.8,0-19.5-3.4-25.8-10.1c-6.3-6.7-9.5-16.1-9.5-27.9
		c0-11.9,3.3-21.5,9.9-28.6c6.6-7.1,15.3-10.7,25.8-10.7c9.1,0,17.9,3.1,26.2,9.1l1.2,0.8v-26.6l-0.4-0.2c-3.1-1.8-7.4-3.2-12.7-4.3
		C678.9,145.8,673.7,145.2,668.8,145.2 M586.7,148h-27.5v117.1h27.5V148L586.7,148z M573.2,98.2c-4.5,0-8.5,1.5-11.7,4.6
		c-3.3,3.1-4.9,6.9-4.9,11.5c0,4.5,1.6,8.3,4.9,11.3c3.2,3,7.2,4.5,11.8,4.5c4.6,0,8.6-1.5,11.8-4.5c3.3-3,4.9-6.8,4.9-11.3
		c0-4.4-1.6-8.2-4.8-11.4C582,99.7,577.9,98.2,573.2,98.2 M504.4,139.4v125.8h28.1V101.7h-38.9l-49.5,121.4l-48-121.4h-40.5v163.4
		h26.4V139.4h0.9l50.7,125.8h19.9l49.9-125.8L504.4,139.4L504.4,139.4z"/>
	<path class="st0" d="M130.8,176.7H1.2V47.1h129.6V176.7L130.8,176.7z"/>
	<path class="st0" d="M273.9,176.7H144.3V47.1h129.6V176.7L273.9,176.7z"/>
	<path class="st0" d="M130.8,319.9H1.2V190.3h129.6V319.9z"/>
	<path class="st0" d="M273.9,319.9H144.3V190.3h129.6V319.9L273.9,319.9z"/>
</g>
</svg>
