<?xml version="1.0" encoding="utf-8"?>
<!-- Generator: Adobe Illustrator 21.0.0, SVG Export Plug-In . SVG Version: 6.00 Build 0)  -->
<svg version="1.1" id="Layer_1" xmlns:sketch="http://www.bohemiancoding.com/sketch/ns"
	 xmlns="http://www.w3.org/2000/svg" xmlns:xlink="http://www.w3.org/1999/xlink" x="0px" y="0px" viewBox="0 0 1280 367"
	 style="enable-background:new 0 0 1280 367;" xml:space="preserve">
<style type="text/css">
	.st0{fill:#C1C1C1;}
</style>
<title>ticketmaster_logo</title>
<desc>Created with Sketch.</desc>
<g id="Page-1" sketch:type="MSPage">
	<path id="Fill-1" class="st0" d="M788.5,249.1H788c-10.3,13.1-20.7,20.5-37.3,20.5c-20.9,0-35.7-11.7-35.7-33.2
		c0-38.4,42.7-41.3,71-41.3h10.6c0.9-3.2,0.9-6.5,0.9-9.9c0-11.7-12.5-15.1-23.2-15.1c-13.2,0-26,3.4-38,9l4.2-24.2
		c12.9-4.5,25.9-7,39.4-7c23.2,0,44.9,8.6,44.9,35.9c0,15.6-11.4,61.2-14.2,83.1h-25.4L788.5,249.1L788.5,249.1z M759.1,247.4
		c22.5,0,29.4-15.6,34.2-34.3h-10.6c-14.6,0-38.9,2.5-38.9,22.1C743.7,243.4,751.4,247.4,759.1,247.4z M7.3,150.5h21.8l5.2-23.9
		l32.4-10.6l-7.4,34.6h27l-4.7,22.1h-27l-11,50.8c-0.7,2.7-1.4,6.8-1.4,11.3c0,7,4.7,11.3,11.5,11.3c5.4,0,10.8-1.1,14.6-2.7
		l-5.2,23.5c-5.2,1.1-11,2.7-16.2,2.7c-20.5,0-34.9-8.1-34.9-30.5c0-9,1.8-17.8,3.8-27.1l8.5-39.3H2.6
		C2.6,172.6,7.3,150.5,7.3,150.5z M98.6,150.5h30.1L104,266.8H73.9L98.6,150.5z M109.7,100.3h30.1l-6.3,28.9h-30.1L109.7,100.3z
		 M219.8,177.1c-5.9-3.9-13.7-5.9-22-5.9c-24.1,0-37.6,22.6-37.6,44.5c0,15.1,4.9,30.3,25.6,30.3c7.4,0,16.6-2,24.5-5.9l-3.4,23.9
		c-9.2,4.5-19.1,5.4-29,5.4c-29.9,0-49.2-20.1-49.2-50.2c0-40.7,26.7-71.6,68.4-71.6c11.2,0,22,2,30.1,4.5
		C227.2,152.3,219.8,177.1,219.8,177.1z M252.8,97.4H283l-20,95.3h0.5l42-42.2h39.1L289,203.5l34.9,63.3h-34L260,205.1h-0.4
		l-13.1,61.6h-29.4C217.1,266.8,252.8,97.4,252.8,97.4z M453.2,150.5H475l5.2-23.9l32.4-10.6l-7.4,34.6h27l-4.7,22.1h-27l-11,50.8
		c-0.7,2.7-1.4,6.8-1.4,11.3c0,7,4.7,11.3,11.5,11.3c5.4,0,10.8-1.1,14.6-2.7l-5.2,23.5c-5.2,1.1-11,2.7-16.2,2.7
		c-20.5,0-34.9-8.1-34.9-30.5c0-9,1.8-17.8,3.8-27.1l8.5-39.3h-21.8C448.4,172.6,453.2,150.5,453.2,150.5z M443.1,192
		c0-29.6-18.9-44.3-47.5-44.3c-38,0-65.9,34.8-65.9,70.9c0,34.6,22.5,50.8,55.8,50.8c12.4,0,25.2-3,36.9-6.5l3.8-24
		c-11.2,5.2-23.1,8.4-35.5,8.4c-19.3,0-30.5-6.9-32-25.1h0c-0.1-1.1-0.2-2.1-0.2-3.2c0-0.2,0-0.4,0-0.6c0-0.1,0-0.2,0-0.3h0
		c0.1-8,1.9-15.8,4.9-23.1c5.8-14.8,14-25,31.8-25c12.6,0,19.1,7,19.1,19.4c0,2.7-0.2,5.2-0.7,7.9h-41.2c-2.7,9.1-3.1,15.3-3.2,20.8
		h71C441.9,209.4,443.1,200.9,443.1,192z M545.1,163.4c0.9-4.5,1.8-9.3,2.5-12.9h28.1l-2.7,15.6h0.4c8.1-12,21.4-18.3,35.5-18.3
		c13.7,0,27.9,8.1,29.5,22.1h0.4c7.7-15.1,24.6-22.1,40.8-22.1c17.3,0,32.1,14.2,32.1,31.8c0,10.4-2.7,22.1-5.2,31.6l-12.1,55.6
		h-30.1l12.1-56.7c1.6-7,3.8-17.8,3.8-24.8c0-8.6-6.5-14-14.2-14c-20.9,0-26.1,24.4-29.9,40.2l-11.9,55.3h-30.1l12.1-56.7
		c1.6-7,3.8-17.8,3.8-24.8c0-8.6-6.5-14-14.2-14c-20.4,0-26.1,24.6-29.9,40.2l-11.9,55.3H524L545.1,163.4z M914.4,174.2
		c-3.2-1.8-11.5-4.3-20.1-4.3c-9,0-20.2,2.5-20.2,11.7c0,14.7,39.1,20.1,39.1,48.6c0,30.3-26.3,39.3-52.2,39.3
		c-12.1,0-24.2-1.8-35.3-7l6.5-24.2c8.6,4.7,17.1,9,28.8,9c10.1,0,20.7-3.4,20.7-12.9c0-18.8-39.1-20.6-39.1-49.7
		c0-27.3,26.3-37,50.1-37c11.1,0,22.3,2,28.2,3.6L914.4,174.2L914.4,174.2z M933.7,150.5h21.8l5.2-23.9l32.4-10.6l-7.4,34.6h27
		l-4.7,22.1h-27l-11,50.8c-0.7,2.7-1.4,6.8-1.4,11.3c0,7,4.7,11.3,11.5,11.3c5.4,0,10.8-1.1,14.6-2.7l-5.2,23.5
		c-5.1,1.1-11,2.7-16.2,2.7c-20.4,0-34.9-8.1-34.9-30.5c0-9,1.8-17.8,3.9-27.1l8.5-39.3H929L933.7,150.5L933.7,150.5z M1138,166.1
		c0.9-5,1.8-10.2,2.7-15.6h28.8l-4.1,21.9h0.5c5.4-12.6,20.2-24.6,34.2-24.6c3.8,0,7.9,0.2,11.5,1.1l-6.3,29.6
		c-3.4-1.1-7.7-1.8-11.5-1.8c-21.4,0-31.7,19.2-35.5,38l-10.8,52.1h-30.1L1138,166.1z M1117.1,192c0-29.6-18.9-44.3-47.5-44.3
		c-38,0-65.9,34.8-65.9,70.9c0,34.6,22.4,50.8,55.7,50.8c12.4,0,25.2-3,36.9-6.5l3.8-24c-11.2,5.2-23.2,8.4-35.5,8.4
		c-19.3,0-30.6-6.9-32-25.1h-0.1c0-1.1-0.1-2.1-0.1-3.2v-0.6V218c0.1-8,1.9-15.8,4.9-23.1c5.8-14.8,14-25,31.8-25
		c12.6,0,19.1,7,19.1,19.4c0,2.7-0.2,5.2-0.7,7.9h-41.2c-2.7,9.1-3.2,15.3-3.2,20.8h71C1115.9,209.4,1117.1,200.9,1117.1,192
		L1117.1,192z M1251.5,147.9c14.3,0,25.9,11.7,25.9,26c0,14.3-11.7,26-25.9,26s-25.9-11.7-25.9-26
		C1225.6,159.6,1237.2,147.9,1251.5,147.9z M1251.6,196.1c11.9,0,20.9-9.7,20.9-22.1c0-12.5-9-22.1-20.9-22.1
		c-12,0-21.1,9.7-21.1,22.1C1230.5,186.4,1239.6,196.1,1251.6,196.1z M1241.6,158.7h11.6c7,0,10.4,2.8,10.4,8.6
		c0,4.9-3.1,8.4-7.8,8.4l8.7,13.5h-5.3l-8.4-13.5h-4.2v13.5h-4.9L1241.6,158.7L1241.6,158.7z M1246.5,171.8h5.9
		c3.8,0,6.3-0.8,6.3-4.8c0-3.5-3.1-4.5-6.3-4.5h-5.9V171.8z"/>
</g>
</svg>
