<?xml version="1.0" encoding="utf-8"?>
<!-- Generator: Adobe Illustrator 21.0.0, SVG Export Plug-In . SVG Version: 6.00 Build 0)  -->
<svg version="1.1" id="Layer_1" xmlns="http://www.w3.org/2000/svg" xmlns:xlink="http://www.w3.org/1999/xlink" x="0px" y="0px"
	 viewBox="0 0 1280 367" style="enable-background:new 0 0 1280 367;" xml:space="preserve">
<style type="text/css">
	.st0{fill:#C1C1C1;}
</style>
<g>
	<polygon class="st0" points="9,30.9 78.1,274.3 153.7,274.3 179.5,152.1 183.2,152.1 209,274.3 283.7,274.3 355.1,30.9 266.6,30.9 
		243.1,185.9 239,185.9 210.4,30.9 150,30.9 122.4,185.9 117.8,185.9 94.7,30.9 	"/>
	<rect x="368.5" y="30.9" class="st0" width="89.4" height="243.3"/>
	<rect x="949.1" y="30.9" class="st0" width="89.4" height="243.3"/>
	<polygon class="st0" points="471.2,30.9 471.2,274.3 552.8,274.3 552.8,150.3 628.8,274.3 692.4,274.3 692.4,171.5 660.2,171.5 
		740.4,30.9 634.4,30.9 634.4,159 557.4,30.9 	"/>
	<polygon class="st0" points="932.5,274.3 932.5,200.5 827,199.6 932.5,30.9 742.7,30.9 742.7,104.2 793.8,104.2 695.2,274.3 	"/>
	<path class="st0" d="M1260.2,117.1c0-89.4-90.3-85.7-90.3-85.7l-32.1-0.5l0,0h-88v243.3h88v-72.4h29.8
		C1274,201.9,1260.2,117.1,1260.2,117.1z M1157.4,140.1h-19.6V98.7h19.6c11.5,0,20.7,9.3,20.7,20.7S1168.9,140.1,1157.4,140.1z"/>
	<g>
		<g>
			<path class="st0" d="M236.4,304.2c-3.2,0-5.8,2.6-5.8,5.9c0,3.2,2.6,5.8,5.8,5.8s5.8-2.6,5.8-5.8
				C242.2,306.8,239.6,304.2,236.4,304.2z M236.4,315c-2.7,0-4.7-2.2-4.7-5c0-2.8,2-5,4.7-5c2.7,0,4.7,2.2,4.7,5
				C241.1,312.8,239.1,315,236.4,315z"/>
			<path class="st0" d="M237.3,310.4c1.1,0,1.8-0.8,1.8-1.9c0-1.3-0.8-1.9-2.3-1.9h-2.6v6.9h1.1v-3h0.9l1.9,3h1.2L237.3,310.4z
				 M235.3,309.5v-2.1h1.3c0.7,0,1.4,0.2,1.4,1c0,0.9-0.6,1.1-1.4,1.1H235.3z"/>
		</g>
		<g>
			<g>
				<path class="st0" d="M75.8,325.9l-3.2,9.7h-4.1L79,304.7h4.8l10.5,30.9h-4.3l-3.3-9.7H75.8z M86,322.7l-3-8.9
					c-0.7-2-1.1-3.9-1.6-5.6h-0.1c-0.5,1.8-1,3.7-1.6,5.6l-3,8.9L86,322.7L86,322.7z"/>
				<path class="st0" d="M130.2,334.6c-1.5,0.7-4.4,1.5-8.2,1.5c-8.7,0-15.3-5.5-15.3-15.6c0-9.7,6.6-16.2,16.1-16.2
					c3.8,0,6.3,0.8,7.3,1.4l-1,3.3c-1.5-0.7-3.7-1.3-6.2-1.3c-7.2,0-12.1,4.6-12.1,12.7c0,7.6,4.4,12.4,11.9,12.4
					c2.4,0,4.9-0.5,6.5-1.3L130.2,334.6z"/>
				<path class="st0" d="M160.6,319.8c0,10.6-6.5,16.3-14.3,16.3c-8.2,0-13.9-6.3-13.9-15.7c0-9.8,6.1-16.2,14.3-16.2
					C155.2,304.2,160.6,310.6,160.6,319.8z M136.6,320.3c0,6.6,3.6,12.5,9.9,12.5c6.3,0,9.9-5.8,9.9-12.8c0-6.1-3.2-12.6-9.9-12.6
					C139.9,307.4,136.6,313.5,136.6,320.3z"/>
				<path class="st0" d="M165.8,305.1c2-0.4,4.9-0.6,7.7-0.6c4.3,0,7,0.8,8.9,2.5c1.6,1.4,2.4,3.5,2.4,5.9c0,4.1-2.6,6.8-5.8,7.9
					v0.1c2.4,0.8,3.8,3,4.5,6.2c1,4.3,1.7,7.3,2.4,8.5h-4.1c-0.5-0.9-1.2-3.5-2.1-7.4c-0.9-4.3-2.6-5.9-6.2-6h-3.8v13.4h-4
					L165.8,305.1L165.8,305.1z M169.8,319.2h4.1c4.3,0,7-2.3,7-5.9c0-4-2.9-5.7-7.1-5.8c-1.9,0-3.3,0.2-3.9,0.4L169.8,319.2
					L169.8,319.2z"/>
				<path class="st0" d="M206.4,321.1h-12v11.1h13.4v3.3h-17.4v-30.9h16.7v3.3h-12.7v9.8h12L206.4,321.1L206.4,321.1z"/>
				<path class="st0" d="M213,304.7h4v27.5h13.2v3.3H213V304.7z"/>
			</g>
		</g>
		<g>
			<path class="st0" d="M279.1,334.6c-1.5,0.7-4.4,1.5-8.2,1.5c-8.7,0-15.3-5.5-15.3-15.6c0-9.7,6.6-16.2,16.1-16.2
				c3.8,0,6.3,0.8,7.3,1.4l-1,3.3c-1.5-0.7-3.7-1.3-6.2-1.3c-7.2,0-12.1,4.6-12.1,12.7c0,7.6,4.4,12.4,11.9,12.4
				c2.4,0,4.9-0.5,6.5-1.3L279.1,334.6z"/>
			<path class="st0" d="M309.5,319.8c0,10.6-6.5,16.3-14.3,16.3c-8.2,0-13.9-6.3-13.9-15.7c0-9.8,6.1-16.2,14.3-16.2
				C304,304.2,309.5,310.6,309.5,319.8z M285.5,320.3c0,6.6,3.6,12.5,9.9,12.5c6.3,0,9.9-5.8,9.9-12.8c0-6.1-3.2-12.6-9.9-12.6
				C288.8,307.4,285.5,313.5,285.5,320.3z"/>
			<path class="st0" d="M340.7,322c-0.2-4.3-0.5-9.5-0.5-13.3h-0.1c-1.1,3.6-2.3,7.5-3.9,11.7l-5.5,15h-3l-5-14.7
				c-1.5-4.4-2.7-8.3-3.6-12h-0.1c-0.1,3.9-0.3,9-0.6,13.7l-0.8,13.2h-3.8l2.2-30.9h5.1l5.3,14.9c1.3,3.8,2.3,7.2,3.1,10.4h0.1
				c0.8-3.1,1.9-6.5,3.3-10.4l5.5-14.9h5.1l1.9,30.9h-3.9L340.7,322z"/>
			<path class="st0" d="M351.5,305.1c1.9-0.3,4.4-0.6,7.7-0.6c3.9,0,6.8,0.9,8.7,2.6c1.7,1.5,2.7,3.7,2.7,6.5c0,2.8-0.8,5-2.4,6.6
				c-2.1,2.2-5.5,3.4-9.4,3.4c-1.2,0-2.3,0-3.2-0.3v12.4h-4V305.1z M355.5,319.9c0.9,0.2,2,0.3,3.3,0.3c4.8,0,7.7-2.3,7.7-6.6
				c0-4.1-2.9-6-7.3-6c-1.7,0-3.1,0.1-3.8,0.3V319.9z"/>
			<path class="st0" d="M377,325.9l-3.2,9.7h-4.1l10.5-30.9h4.8l10.5,30.9h-4.3l-3.3-9.7H377z M387.1,322.7l-3-8.9
				c-0.7-2-1.1-3.9-1.6-5.6h-0.1c-0.5,1.8-1,3.7-1.6,5.6l-3,8.9L387.1,322.7L387.1,322.7z"/>
			<path class="st0" d="M400.1,335.6v-30.9h4.4l9.9,15.6c2.3,3.6,4.1,6.9,5.5,10l0.1,0c-0.4-4.1-0.5-7.9-0.5-12.7v-12.9h3.8v30.9h-4
				l-9.8-15.7c-2.2-3.4-4.2-7-5.8-10.3l-0.1,0c0.2,3.9,0.3,7.6,0.3,12.7v13.2L400.1,335.6L400.1,335.6z"/>
			<path class="st0" d="M436.8,335.6v-13.1l-9.8-17.8h4.5l4.4,8.5c1.2,2.3,2.1,4.2,3.1,6.4h0.1c0.9-2,1.9-4,3.1-6.4l4.4-8.5h4.5
				l-10.4,17.7v13.1H436.8z"/>
		</g>
	</g>
	<g>
		<path class="st0" d="M1243.3,32.9h-5.5v-2h13.3v2h-5.5v16h-2.3V32.9z"/>
		<path class="st0" d="M1268.3,41c-0.1-2.5-0.3-5.5-0.3-7.8h-0.1c-0.6,2.1-1.4,4.3-2.3,6.8l-3.2,8.7h-1.8l-2.9-8.6
			c-0.9-2.5-1.6-4.9-2.1-7h-0.1c-0.1,2.2-0.2,5.3-0.3,8l-0.5,7.7h-2.2l1.3-18h3l3.1,8.7c0.7,2.2,1.4,4.2,1.8,6.1h0.1
			c0.5-1.8,1.1-3.8,1.9-6.1l3.2-8.7h3l1.1,18h-2.3L1268.3,41z"/>
	</g>
</g>
</svg>
